<svg width="1355" height="432" viewBox="0 0 1355 432" fill="none" xmlns="http://www.w3.org/2000/svg">
<path d="M82.39 408.2L21.23 241H42.24L92.84 377.62L141.35 241H141.79L82.72 408.2H82.39ZM21.45 241V405.56H38.5V406H5.06V405.56H21.01V241.44H4.07V241H21.45ZM177.87 241V241.44H162.47V405.56H177.87V406H123.86V405.56H141.57V241H177.87ZM278.998 408.2C267.851 408.2 257.914 406.037 249.188 401.71C240.461 397.31 233.054 391.223 226.968 383.45C220.954 375.677 216.371 366.693 213.218 356.5C210.064 346.233 208.488 335.233 208.488 323.5C208.488 311.767 210.138 300.803 213.438 290.61C216.811 280.343 221.578 271.323 227.738 263.55C233.971 255.777 241.414 249.727 250.068 245.4C258.721 241 268.364 238.8 278.998 238.8C289.631 238.8 299.238 241 307.818 245.4C316.471 249.727 323.878 255.777 330.038 263.55C336.271 271.323 341.038 280.343 344.338 290.61C347.638 300.803 349.288 311.767 349.288 323.5C349.288 335.233 347.711 346.233 344.558 356.5C341.478 366.693 336.931 375.677 330.918 383.45C324.904 391.223 317.534 397.31 308.808 401.71C300.081 406.037 290.144 408.2 278.998 408.2ZM278.998 407.76C288.604 407.76 296.341 405.303 302.208 400.39C308.148 395.403 312.694 388.84 315.848 380.7C319.001 372.487 321.128 363.393 322.228 353.42C323.401 343.447 323.988 333.437 323.988 323.39C323.988 313.417 323.328 303.48 322.008 293.58C320.688 283.607 318.341 274.55 314.968 266.41C311.668 258.197 307.084 251.633 301.218 246.72C295.424 241.733 288.018 239.24 278.998 239.24C269.978 239.24 262.534 241.733 256.668 246.72C250.801 251.633 246.181 258.197 242.808 266.41C239.508 274.55 237.161 283.607 235.768 293.58C234.448 303.48 233.788 313.417 233.788 323.39C233.788 333.437 234.374 343.447 235.548 353.42C236.721 363.393 238.884 372.487 242.038 380.7C245.191 388.84 249.738 395.403 255.678 400.39C261.691 405.303 269.464 407.76 278.998 407.76ZM379.132 406V405.56L466.032 241.44H423.132C413.086 241.44 405.202 242.907 399.482 245.84C393.836 248.7 389.839 252.88 387.492 258.38C385.146 263.88 383.972 270.553 383.972 278.4H383.532V241H489.132V241.44L402.232 405.56H451.732C461.779 405.56 469.626 404.057 475.272 401.05C480.992 398.043 485.026 393.497 487.372 387.41C489.719 381.25 490.892 373.513 490.892 364.2H491.332V406H379.132ZM663.554 241V241.44H641.774V355.4C641.774 373.513 637.998 387.043 630.444 395.99C622.891 404.863 610.424 409.3 593.044 409.3C574.051 409.3 560.118 405.083 551.244 396.65C542.444 388.143 538.044 374.393 538.044 355.4V241.44H518.354V241H581.054V241.44H559.054V353.2C559.054 360.46 559.568 367.39 560.594 373.99C561.694 380.59 563.601 386.457 566.314 391.59C569.101 396.723 572.988 400.793 577.974 403.8C583.034 406.733 589.524 408.2 597.444 408.2C607.271 408.2 615.411 406.293 621.864 402.48C628.391 398.593 633.268 392.763 636.494 384.99C639.721 377.143 641.334 367.28 641.334 355.4V241.44H620.544V241H663.554ZM767.458 408.2L706.298 241H727.308L777.908 377.62L826.418 241H826.858L767.788 408.2H767.458ZM706.518 241V405.56H723.568V406H690.128V405.56H706.078V241.44H689.138V241H706.518ZM862.938 241V241.44H847.538V405.56H862.938V406H808.928V405.56H826.638V241H862.938ZM949.986 241C966.339 241 980.419 244.63 992.226 251.89C1004.11 259.077 1013.24 268.903 1019.62 281.37C1026.07 293.837 1029.3 307.88 1029.3 323.5C1029.3 335.233 1027.35 346.123 1023.47 356.17C1019.65 366.143 1014.23 374.87 1007.19 382.35C1000.15 389.83 991.786 395.66 982.106 399.84C972.426 403.947 961.719 406 949.986 406H888.496V405.56H908.186V241.44H888.496V241H949.986ZM929.196 405.56H949.986C960.106 405.56 968.612 403.213 975.506 398.52C982.399 393.753 987.936 387.447 992.116 379.6C996.296 371.68 999.302 362.843 1001.14 353.09C1002.97 343.337 1003.89 333.437 1003.89 323.39C1003.89 313.417 1002.86 303.59 1000.81 293.91C998.752 284.157 995.562 275.357 991.236 267.51C986.982 259.59 981.446 253.283 974.626 248.59C967.806 243.823 959.592 241.44 949.986 241.44H929.196V405.56ZM1059.92 406V405.56H1079.61V241.44H1059.92V241H1175.31V286.1H1174.98C1174.98 278.253 1173.7 270.957 1171.13 264.21C1168.57 257.39 1164.53 251.89 1159.03 247.71C1153.61 243.53 1146.6 241.44 1138.02 241.44H1100.62V405.56H1135.82C1145.87 405.56 1153.9 403.433 1159.91 399.18C1166 394.853 1170.4 388.987 1173.11 381.58C1175.83 374.173 1177.18 365.813 1177.18 356.5H1177.62V406H1059.92ZM1137.58 344.84C1137.58 339.927 1136.48 335.673 1134.28 332.08C1132.08 328.487 1129.15 325.737 1125.48 323.83C1121.89 321.85 1118 320.86 1113.82 320.86H1091.82V320.42H1113.82C1118 320.42 1121.89 319.54 1125.48 317.78C1129.15 316.02 1132.08 313.453 1134.28 310.08C1136.48 306.633 1137.58 302.453 1137.58 297.54H1138.02V344.84H1137.58ZM1245.17 321.52V321.08H1278.17C1285.21 321.08 1291.19 319.467 1296.1 316.24C1301.01 313.013 1304.75 308.467 1307.32 302.6C1309.89 296.66 1311.17 289.693 1311.17 281.7C1311.17 273.707 1309.89 266.703 1307.32 260.69C1304.75 254.603 1301.01 249.873 1296.1 246.5C1291.19 243.127 1285.21 241.44 1278.17 241.44H1205.57V241H1278.17C1289.24 241 1298.89 242.43 1307.1 245.29C1315.39 248.077 1321.8 252.477 1326.35 258.49C1330.9 264.43 1333.17 272.167 1333.17 281.7C1333.17 291.233 1331.04 298.933 1326.79 304.8C1322.54 310.593 1316.3 314.847 1308.09 317.56C1299.95 320.2 1289.98 321.52 1278.17 321.52H1245.17ZM1205.57 406V405.56H1274.87V406H1205.57ZM1229.66 405.78V241.22H1250.67V405.78H1229.66ZM1332.07 407.1C1325.69 407.1 1320.7 405.89 1317.11 403.47C1313.59 401.05 1311.02 397.823 1309.41 393.79C1307.8 389.683 1306.77 385.1 1306.33 380.04C1305.96 374.98 1305.74 369.737 1305.67 364.31C1305.6 358.883 1305.3 353.64 1304.79 348.58C1304.28 343.52 1303.14 338.973 1301.38 334.94C1299.62 330.833 1296.8 327.57 1292.91 325.15C1289.1 322.73 1283.82 321.52 1277.07 321.52H1245.17V321.08H1281.47C1292.25 321.08 1300.79 322.62 1307.1 325.7C1313.48 328.78 1318.21 332.85 1321.29 337.91C1324.44 342.897 1326.53 348.433 1327.56 354.52C1328.59 360.533 1329.1 366.583 1329.1 372.67C1329.17 378.683 1329.28 384.22 1329.43 389.28C1329.58 394.267 1330.35 398.3 1331.74 401.38C1333.13 404.46 1335.77 406 1339.66 406C1342.01 406 1344.21 405.743 1346.26 405.23C1348.31 404.717 1350.11 404.093 1351.65 403.36L1351.87 403.58C1350.11 404.533 1347.58 405.34 1344.28 406C1340.98 406.733 1336.91 407.1 1332.07 407.1Z" fill="#ECDFCC"/>
<path d="M143.4 196.4C142.067 196.4 140.733 196.333 139.4 196.2C138.067 196.067 136.667 195.867 135.2 195.6C126.133 193.867 117.933 190.867 110.6 186.6C103.267 182.333 96.6667 177.333 90.8 171.6C85.0667 166 79.8 160.067 75 153.8C70.3333 147.533 66.0667 141.533 62.2 135.8C58.3333 129.933 54.7333 124.8 51.4 120.4C51.1333 119.733 50.8 119.533 50.4 119.8C50.1333 120.067 50 120.2 50 120.2C47.0667 125.8 44.3333 131.067 41.8 136C39.4 140.8 37.6 144.667 36.4 147.6C35.3333 150.533 34.8 152.6 34.8 153.8C34.8 155.667 35.5333 156.6 37 156.6C38.8667 156.6 40.8667 155.333 43 152.8C44.4667 151.067 45.8 149.467 47 148C48.3333 146.4 49.4667 145.733 50.4 146C50.5333 146.133 50.6 146.333 50.6 146.6C50.6 147.267 50.1333 148.2 49.2 149.4C48.2667 150.467 47.7333 151.067 47.6 151.2C46.6667 152.533 45.4 154.333 43.8 156.6C42.3333 158.867 40.7333 160.867 39 162.6C37.4 164.467 35.6667 165.4 33.8 165.4C33.5333 165.4 32.7333 165.267 31.4 165C30.2 164.733 29 164.4 27.8 164C26.7333 163.6 26.1333 163.133 26 162.6C25.7333 160.067 26.3333 156.533 27.8 152C29.4 147.333 31.5333 142.2 34.2 136.6C36.8667 131 39.6 125.533 42.4 120.2C40.2667 119.667 38.7333 119.2 37.8 118.8C36.4667 117.867 35.8 116.6 35.8 115C35.8 113.667 36.3333 112.467 37.4 111.4C38.4667 110.333 40.0667 109.8 42.2 109.8C42.8667 109.8 43.6667 109.933 44.6 110.2C45.5333 110.467 46.2667 110.933 46.8 111.6C49.0667 107.6 51.0667 103.933 52.8 100.6C54.6667 97.2667 56 94.6667 56.8 92.8C57.6 91.3333 58.1333 90.1333 58.4 89.2C58.6667 88.1333 58.8 87.3333 58.8 86.8C58.8 86 58.6667 85.3333 58.4 84.8C58.6667 83.2 59.6 81.0667 61.2 78.4C62.9333 75.7333 65.0667 73.0667 67.6 70.4C70.1333 67.7333 72.8667 65.5333 75.8 63.8C78.7333 61.9333 81.4667 61 84 61C84.8 61 86 61.2667 87.6 61.8C89.3333 62.2 90.9333 62.8667 92.4 63.8C94 64.7333 95 66.0667 95.4 67.8C95.5333 68.2 95.6 68.6 95.6 69C95.6 69.4 95.4667 69.6 95.2 69.6C94.9333 69.6 94.5333 69.5333 94 69.4C93.6 69.1333 93.2667 69 93 69C89.2667 69 85.0667 71.2667 80.4 75.8C75.8667 80.2 71.2 85.8667 66.4 92.8C61.7333 99.7333 57.3333 106.933 53.2 114.4C53.8667 114.533 54.6 114.733 55.4 115C56.3333 115.133 57.4 115.2 58.6 115.2C59.1333 115.2 59.6 115.2 60 115.2C60.5333 115.2 61.0667 115.133 61.6 115C70.1333 114.067 78.8 112.4 87.6 110C96.5333 107.6 104.867 104.467 112.6 100.6C120.333 96.7333 126.733 92.2 131.8 87C136.467 82.0667 138.8 77 138.8 71.8C138.8 67.9333 137.333 64.3333 134.4 61C131.467 57.6667 126.867 55.1333 120.6 53.4C116.867 52.3333 112.6 51.5333 107.8 51C103.133 50.4667 98.0667 50.2 92.6 50.2C84.0667 50.2 75.2667 50.9333 66.2 52.4C57.2667 53.8667 48.8667 56.1333 41 59.2C33.1333 62.1333 26.5333 65.8667 21.2 70.4C15.8667 74.9333 12.6667 80.3333 11.6 86.6C11.2 89.8 11.8 92.3333 13.4 94.2C15 96.0667 16.9333 97.5333 19.2 98.6C21.6 99.5333 23.4667 100.4 24.8 101.2C25.7333 102 26.2 102.667 26.2 103.2C26.2 104.133 25.3333 104.467 23.6 104.2C21.7333 103.8 19.4 102.867 16.6 101.4C13.9333 99.9333 11.5333 97.9333 9.4 95.4C7.4 92.7333 6.4 89.6667 6.4 86.2C6.4 85.6667 6.4 85.1333 6.4 84.6C6.53333 84.0667 6.66667 83.5333 6.8 83C6.8 82.8667 6.73333 82.4667 6.6 81.8C6.6 81 6.6 80.3333 6.6 79.8C7.4 75.6667 9.4 71.8 12.6 68.2C15.9333 64.4667 19.6667 61.2 23.8 58.4C28.0667 55.4667 32 53.1333 35.6 51.4C41.8667 48.3333 49.4 45.9333 58.2 44.2C67 42.3333 76.2 41.4 85.8 41.4C91.6667 41.4 97.4667 41.8 103.2 42.6C109.067 43.4 114.733 44.6667 120.2 46.4C127.8 48.9333 133.667 52.8667 137.8 58.2C142.067 63.4 144 68.8667 143.6 74.6C143.2 80.0667 141.267 85 137.8 89.4C134.467 93.8 130.133 97.6667 124.8 101C119.6 104.2 113.8 107 107.4 109.4C101.133 111.667 94.8 113.533 88.4 115C83.2 116.067 77.7333 116.933 72 117.6C66.2667 118.267 60.8667 118.733 55.8 119C61.5333 126.067 67.2 133.2 72.8 140.4C78.5333 147.467 84.6 154.133 91 160.4C97.5333 166.667 104.667 172 112.4 176.4C120.133 180.933 128.867 184.133 138.6 186C140.6 186.4 142.667 186.6 144.8 186.6C148.267 186.6 151.667 186.067 155 185C158.467 183.933 161.333 182.267 163.6 180C165.867 177.733 167 174.733 167 171C167 170.333 166.933 169.667 166.8 169C166.8 168.333 166.733 167.667 166.6 167C166.6 166.733 166.533 166.533 166.4 166.4C166.4 166.267 166.4 166.133 166.4 166C166.4 164.8 166.867 164.2 167.8 164.2C169.133 164.2 170 165.2 170.4 167.2C170.8 169.2 171 171.067 171 172.8C171 174.8 170.8 176.667 170.4 178.4C170.133 180.133 169.733 181.733 169.2 183.2C168 186.933 164.933 190.067 160 192.6C155.2 195.133 149.667 196.4 143.4 196.4ZM171.417 162C169.151 162 167.017 161.467 165.017 160.4C163.151 159.333 161.751 157.333 160.817 154.4C160.417 153.2 160.217 151.533 160.217 149.4C160.217 146.467 160.617 143.2 161.417 139.6C162.217 136 163.084 132.933 164.017 130.4C163.351 130.667 162.084 131.867 160.217 134C158.484 136 156.284 138.467 153.617 141.4C151.084 144.2 148.217 147.067 145.017 150C141.951 152.8 138.751 155.133 135.417 157C132.084 158.867 128.817 159.8 125.617 159.8C123.484 159.8 121.217 159.2 118.817 158C116.417 156.667 114.484 155 113.017 153C111.017 150.333 110.017 147.6 110.017 144.8C110.017 141.2 111.217 137.467 113.617 133.6C116.151 129.733 119.351 126 123.217 122.4C127.217 118.667 131.417 115.333 135.817 112.4C140.351 109.333 144.617 106.8 148.617 104.8C152.751 102.667 156.084 101.267 158.617 100.6C161.284 99.8 164.284 99.4 167.617 99.4C169.484 99.4 171.417 99.6667 173.417 100.2C175.417 100.6 177.084 101.333 178.417 102.4C179.484 102.933 180.351 103.667 181.017 104.6C181.684 105.533 182.017 106.533 182.017 107.6C182.017 108.667 181.551 109 180.617 108.6C179.551 107 178.084 106 176.217 105.6C174.484 105.067 172.684 104.8 170.817 104.8C165.484 104.8 159.617 106.533 153.217 110C146.817 113.467 141.084 117.533 136.017 122.2C134.417 123.533 132.217 125.867 129.417 129.2C126.751 132.4 124.284 135.933 122.017 139.8C119.751 143.667 118.617 147.2 118.617 150.4C118.617 152.133 119.084 153.667 120.017 155C120.551 155.933 121.417 156.4 122.617 156.4C124.484 156.4 126.951 155.4 130.017 153.4C133.217 151.4 136.484 149 139.817 146.2C143.151 143.267 146.151 140.467 148.817 137.8C151.617 135.133 153.617 133.2 154.817 132C155.484 131.333 156.751 130 158.617 128C160.617 125.867 162.751 123.6 165.017 121.2C167.284 118.8 169.284 116.733 171.017 115C172.884 113.267 174.084 112.4 174.617 112.4C175.284 112.4 176.351 112.6 177.817 113C179.417 113.267 180.751 113.733 181.817 114.4C182.884 115.067 183.084 115.933 182.417 117C178.951 122.067 176.151 127.4 174.017 133C172.017 138.467 170.817 142.8 170.417 146C170.284 146.533 170.217 147.067 170.217 147.6C170.217 148 170.217 148.467 170.217 149C170.217 154.333 172.084 157 175.817 157C177.817 157 180.484 155.8 183.817 153.4C187.151 151 190.551 148.133 194.017 144.8C197.484 141.467 200.617 138.267 203.417 135.2C206.351 132 208.351 129.6 209.417 128C209.817 127.6 210.217 127.4 210.617 127.4C211.151 127.4 211.617 127.667 212.017 128.2C212.417 128.6 212.417 129.133 212.017 129.8C210.551 132.2 208.417 135.067 205.617 138.4C202.817 141.733 199.684 145.067 196.217 148.4C192.751 151.733 189.351 154.6 186.017 157C184.284 158.333 182.084 159.467 179.417 160.4C176.751 161.467 174.084 162 171.417 162ZM184.042 228C182.842 228 182.242 227.6 182.242 226.8C182.242 226.133 182.376 225.533 182.642 225C183.176 224.067 184.376 221.333 186.242 216.8C188.109 212.4 190.442 206.733 193.242 199.8C195.909 193 198.842 185.6 202.042 177.6C205.242 169.733 208.376 161.933 211.442 154.2C214.509 146.333 217.309 139.2 219.842 132.8C217.442 133.2 215.309 133.467 213.442 133.6C211.576 133.733 210.242 133.8 209.442 133.8C208.242 133.8 207.042 133.4 205.842 132.6C204.642 131.8 204.042 130.733 204.042 129.4C204.042 128.2 204.842 127.2 206.442 126.4C208.042 125.467 209.776 124.8 211.642 124.4C213.642 123.867 215.109 123.6 216.042 123.6C217.509 123.6 218.576 124.133 219.242 125.2C220.042 126.267 220.909 126.8 221.842 126.8H222.242C223.709 123.067 224.909 120 225.842 117.6C226.909 115.067 227.576 113.267 227.842 112.2C228.909 109.4 230.376 105.8 232.242 101.4C234.109 97 236.176 92.3333 238.442 87.4C240.709 82.3333 243.042 77.4667 245.442 72.8C247.976 68 250.309 63.8667 252.442 60.4C254.442 57.3333 256.776 54.2667 259.442 51.2C262.242 48 265.242 45.4 268.442 43.4C271.776 41.2667 275.309 40.2 279.042 40.2C280.642 40.2 282.176 40.4 283.642 40.8C285.109 41.0667 286.509 41.5333 287.842 42.2C291.842 44.4667 293.842 47.7333 293.842 52C293.842 53.7333 293.509 55.6667 292.842 57.8C292.309 59.8 291.509 61.9333 290.442 64.2C288.709 68.0667 285.842 72.6667 281.842 78C277.976 83.3333 273.442 88.8667 268.242 94.6C263.176 100.333 257.909 105.867 252.442 111.2C246.976 116.533 241.709 121.2 236.642 125.2C240.109 124.933 243.642 124.667 247.242 124.4C250.842 124 254.442 123.8 258.042 123.8C258.976 123.8 259.909 123.933 260.842 124.2C261.909 124.333 262.442 124.6 262.442 125C262.442 125.267 262.109 125.6 261.442 126C260.909 126.267 259.776 126.667 258.042 127.2C256.976 127.467 254.842 127.933 251.642 128.6C248.442 129.133 244.709 129.667 240.442 130.2C236.309 130.733 232.176 131.267 228.042 131.8C226.176 136.6 223.976 142.333 221.442 149C219.042 155.533 216.576 162.133 214.042 168.8C211.642 175.6 209.442 181.667 207.442 187C205.842 191.667 204.842 195.067 204.442 197.2C204.042 199.333 203.842 200.933 203.842 202V203.4C203.842 203.933 203.776 204.467 203.642 205C203.642 205.533 203.442 206.267 203.042 207.2C200.642 213.333 199.042 217.467 198.242 219.6C197.442 221.867 196.309 223.467 194.842 224.4C193.776 224.933 192.109 225.667 189.842 226.6C187.576 227.533 185.642 228 184.042 228ZM230.842 125.6C235.776 121.867 240.842 117.333 246.042 112C251.242 106.667 256.309 101 261.242 95C266.176 88.8667 270.642 82.8667 274.642 77C278.776 71.1333 282.176 65.9333 284.842 61.4C287.109 57.6667 288.242 54.1333 288.242 50.8C288.242 47.2 286.976 45.4 284.442 45.4C282.309 45.4 279.776 46.6 276.842 49C274.309 50.8667 271.242 54 267.642 58.4C264.176 62.6667 260.709 67.4667 257.242 72.8C253.909 78 250.976 82.9333 248.442 87.6C245.509 93.2 242.842 98.6 240.442 103.8C238.042 108.867 236.109 113.133 234.642 116.6C233.176 119.933 232.309 121.933 232.042 122.6C231.642 123.4 231.242 124.4 230.842 125.6ZM295.042 90.4C293.309 90.4 291.442 90.2667 289.442 90C287.576 89.6 286.642 88.3333 286.642 86.2C286.642 85.8 287.509 84.8667 289.242 83.4C291.109 81.9333 292.976 80.4667 294.842 79C296.842 77.4 298.042 76.4667 298.442 76.2C300.842 74.3333 302.309 73.4 302.842 73.4C303.642 73.4 303.642 74.2667 302.842 76C302.176 77.7333 301.842 79.2667 301.842 80.6C301.842 81.2667 301.376 82.4 300.442 84C299.642 85.6 298.709 87.0667 297.642 88.4C296.576 89.7333 295.709 90.4 295.042 90.4ZM273.042 162C270.776 162 268.642 161.467 266.642 160.4C264.776 159.333 263.376 157.333 262.442 154.4C262.309 154 262.176 153.533 262.042 153C262.042 152.467 262.042 151.933 262.042 151.4C262.042 148.733 262.642 145.467 263.842 141.6C265.176 137.733 266.709 133.933 268.442 130.2C267.509 131.267 266.509 132.6 265.442 134.2C264.376 135.667 262.776 137.6 260.642 140C260.109 140.533 259.576 140.8 259.042 140.8C258.109 140.8 257.642 140.267 257.642 139.2C257.642 138.4 257.909 137.733 258.442 137.2C261.909 132.8 264.976 128.867 267.642 125.4C270.309 121.933 272.442 119 274.042 116.6C273.776 116.333 273.642 116.067 273.642 115.8C273.642 115.267 273.842 114.733 274.242 114.2C275.309 111 276.376 108.333 277.442 106.2C278.509 103.933 279.709 102.667 281.042 102.4C281.309 102.4 281.576 102.4 281.842 102.4C282.109 102.267 282.376 102.2 282.642 102.2C284.109 102.2 285.442 102.533 286.642 103.2C287.842 103.867 288.442 104.867 288.442 106.2C288.442 107.4 287.976 108.867 287.042 110.6C286.242 112.333 285.309 114.467 284.242 117C281.176 123.133 278.442 128.733 276.042 133.8C273.776 138.733 272.442 142.8 272.042 146C271.909 146.533 271.842 147.067 271.842 147.6C271.842 148 271.842 148.467 271.842 149C271.842 154.333 273.709 157 277.442 157C279.442 157 282.109 155.8 285.442 153.4C288.776 151 292.176 148.133 295.642 144.8C299.109 141.467 302.242 138.267 305.042 135.2C307.842 132 309.842 129.6 311.042 128C311.442 127.6 311.842 127.4 312.242 127.4C312.776 127.4 313.176 127.6 313.442 128C313.842 128.4 313.909 128.933 313.642 129.6C312.442 131.867 310.376 134.733 307.442 138.2C304.642 141.533 301.442 144.933 297.842 148.4C294.376 151.733 290.976 154.6 287.642 157C285.909 158.333 283.709 159.467 281.042 160.4C278.376 161.467 275.709 162 273.042 162Z" fill="#ECDFCC"/>
</svg>
